<?xml version="1.0" encoding="utf-8"?><!-- Uploaded to: SVG Repo, www.svgrepo.com, Generator: SVG Repo Mixer Tools -->
<svg fill="#000000" width="800px" height="800px" viewBox="0 0 24 24" id="responsive" data-name="Flat Line" xmlns="http://www.w3.org/2000/svg" class="icon flat-line"><path id="secondary" d="M4,4V15h8V10a1,1,0,0,1,1-1h7V4a1,1,0,0,0-1-1H5A1,1,0,0,0,4,4Z" style="fill: rgb(44, 169, 188); stroke-width: 2;"></path><path id="primary" d="M5,3H19a1,1,0,0,1,1,1V9H13a1,1,0,0,0-1,1v5H4V4A1,1,0,0,1,5,3ZM3,15v1a1,1,0,0,0,1,1h8V15Zm10,6h7a1,1,0,0,0,1-1V10a1,1,0,0,0-1-1H13a1,1,0,0,0-1,1V20A1,1,0,0,0,13,21Zm4.5-10h-2L15,9h3Z" style="fill: none; stroke: rgb(0, 0, 0); stroke-linecap: round; stroke-linejoin: round; stroke-width: 2;"></path></svg>