<svg width="181" height="40" viewBox="0 0 181 40" fill="none" xmlns="http://www.w3.org/2000/svg">
<path d="M12.3296 3H10.2962C9.60789 3 9.04956 3.55832 9.04956 4.24649V10.3663C9.04956 11.0552 9.60789 11.6129 10.2962 11.6129H12.3296C13.018 11.6129 13.5763 11.0552 13.5763 10.3663V4.24649C13.5761 3.55832 13.018 3 12.3296 3ZM11.3127 5.10285C12.9726 5.12022 13.3403 5.32235 13.3403 5.32235L12.9249 6.93271H9.73934L9.32337 5.32235C9.32337 5.32235 9.65312 5.08569 11.3127 5.10285ZM9.21534 5.57334L9.64827 7.11464V8.82818L9.21534 10.0056V5.57334ZM9.32337 10.257L9.73934 8.97559H12.9249L13.3403 10.257H9.32337ZM13.4398 10.0054L13.0245 8.82798V7.11444L13.4398 5.57314V10.0054Z" fill="white"/>
<path d="M27.6111 26.4565C27.6111 21.3257 23.4367 17.1515 18.3056 17.1515C16.7491 17.1515 15.2845 17.5419 13.9938 18.2207V20.8468C14.2903 20.5835 14.5954 20.3601 14.9187 20.1697C14.9754 20.137 15.0471 20.1552 15.0798 20.2117C15.1131 20.2674 15.0943 20.3399 15.0382 20.3727C14.6707 20.5891 14.328 20.8534 13.9938 21.1701V24.4562C14.7511 22.8305 16.3976 21.6997 18.3056 21.6997C20.9288 21.6997 23.0625 23.8335 23.0625 26.4565C23.0625 26.5667 23.0583 26.6758 23.0506 26.784C23.0506 26.7838 23.0506 26.7842 23.0506 26.784C23.0431 26.8878 23.032 26.9914 23.0183 27.0933C22.7059 29.4163 20.7131 31.2138 18.3064 31.2138C15.7066 31.2138 13.588 29.1162 13.551 26.5243L13.6253 11.249C13.4981 11.8027 12.8721 12.1428 12.2801 12.1428H10.2465C9.56156 12.1428 9.00667 11.5905 9.00122 10.907V26.4563C9.00122 31.5872 13.1754 35.7622 18.3064 35.7622C23.2188 35.7622 27.2509 31.9349 27.5859 27.1059C27.5859 27.1045 27.5861 27.1028 27.5861 27.1016C27.5911 27.0299 27.5949 26.9576 27.5984 26.8856C27.604 26.7771 27.6075 26.6681 27.6091 26.5586C27.6091 26.5471 27.6101 26.536 27.6101 26.5245C27.6103 26.5019 27.6111 26.4793 27.6111 26.4565ZM17.9068 19.5868C17.3597 19.6152 16.8725 19.6859 16.4188 19.8042C16.4089 19.8069 16.3986 19.8083 16.3889 19.8083C16.3368 19.8083 16.2887 19.7729 16.2748 19.72C16.2584 19.6572 16.2964 19.5928 16.359 19.5765C16.8291 19.4537 17.3315 19.3804 17.895 19.3525C17.9673 19.3564 18.0154 19.3992 18.0184 19.4638C18.0216 19.529 17.9716 19.5841 17.9068 19.5868ZM21.0192 19.9444C21.0015 19.991 20.9564 20.0209 20.9088 20.0209C20.895 20.0209 20.8811 20.0183 20.8674 20.0136C20.3987 19.8373 19.9088 19.7126 19.4119 19.6423C19.3473 19.6332 19.3023 19.5738 19.3115 19.5088C19.3208 19.4446 19.3822 19.4 19.4446 19.4087C19.9589 19.4818 20.4656 19.6108 20.9502 19.7927C21.0112 19.8155 21.0421 19.8834 21.0192 19.9444ZM11.1947 12.5478C11.1947 12.4824 11.2474 12.4297 11.3127 12.4297C11.3779 12.4297 11.4304 12.4824 11.4304 12.5478V13.3135C11.4304 13.379 11.3779 13.4313 11.3127 13.4313C11.2474 13.4313 11.1947 13.3788 11.1947 13.3135V12.5478ZM11.1947 14.7943C11.1947 14.7292 11.2474 14.6763 11.3127 14.6763C11.3779 14.6763 11.4304 14.7292 11.4304 14.7943V16.2742C11.4304 16.3396 11.3779 16.3927 11.3127 16.3927C11.2474 16.3927 11.1947 16.3396 11.1947 16.2742V14.7943ZM11.1947 17.7547C11.1947 17.6899 11.2474 17.637 11.3127 17.637C11.3779 17.637 11.4304 17.6899 11.4304 17.7547V19.2356C11.4304 19.3 11.3779 19.3527 11.3127 19.3527C11.2474 19.3527 11.1947 19.3 11.1947 19.2356V17.7547ZM11.1947 20.7155C11.1947 20.6509 11.2474 20.598 11.3127 20.598C11.3779 20.598 11.4304 20.6509 11.4304 20.7155V22.196C11.4304 22.2611 11.3779 22.314 11.3127 22.314C11.2474 22.314 11.1947 22.2611 11.1947 22.196V20.7155ZM11.1947 23.6766C11.1947 23.6123 11.2474 23.5592 11.3127 23.5592C11.3779 23.5592 11.4304 23.6123 11.4304 23.6766V25.1571C11.4304 25.2221 11.3779 25.2746 11.3127 25.2746C11.2474 25.2746 11.1947 25.2221 11.1947 25.1571V23.6766ZM11.4397 28.3396C11.432 28.341 11.4241 28.3417 11.4163 28.3417C11.3615 28.3417 11.3125 28.3033 11.301 28.2467C11.2462 27.9729 11.2101 27.6912 11.1949 27.4096C11.1804 27.1462 11.1758 27.0223 11.1758 26.9528C11.1758 26.8936 11.179 26.8686 11.1828 26.8377C11.1859 26.81 11.1901 26.7769 11.1923 26.699C11.1923 26.6947 11.1943 26.6917 11.1949 26.6877V26.637C11.1949 26.572 11.2476 26.5195 11.3129 26.5195C11.3781 26.5195 11.4306 26.572 11.4306 26.637V27.4005C11.4455 27.6692 11.4797 27.9386 11.5322 28.2007C11.5451 28.2645 11.5039 28.3265 11.4397 28.3396ZM12.8273 31.0325C12.8053 31.0519 12.7782 31.0602 12.7514 31.0602C12.7179 31.0602 12.6843 31.0464 12.6615 31.0182C12.3209 30.6153 12.0331 30.1788 11.806 29.7194C11.7769 29.6612 11.8009 29.5904 11.8593 29.5615C11.9168 29.5328 11.9885 29.5566 12.017 29.6154C12.2357 30.0572 12.5131 30.4782 12.8412 30.8669C12.8832 30.9164 12.877 30.9905 12.8273 31.0325ZM15.2738 32.8395C15.2534 32.8815 15.2112 32.9066 15.1674 32.9066C15.1503 32.9066 15.1331 32.9027 15.1165 32.8951C14.6463 32.6707 14.1998 32.3987 13.7899 32.0874C13.7382 32.0478 13.7279 31.9745 13.7673 31.922C13.8066 31.8705 13.8806 31.861 13.9324 31.9002C14.3292 32.2015 14.762 32.4652 15.2183 32.6824C15.2767 32.7103 15.3015 32.7808 15.2738 32.8395ZM18.1194 33.6428C18.1178 33.6428 18.1161 33.6428 18.1143 33.6428C17.6 33.621 17.0833 33.5459 16.5781 33.4199C16.5147 33.4043 16.4763 33.3401 16.4921 33.2771C16.5078 33.2145 16.5712 33.1751 16.6348 33.1913C17.1249 33.3133 17.6261 33.3864 18.1244 33.407C18.1896 33.4102 18.2399 33.4649 18.2371 33.5301C18.2347 33.5933 18.1824 33.6428 18.1194 33.6428ZM21.1578 33.1138C20.6788 33.3112 20.1766 33.4558 19.6653 33.5445C19.6585 33.5459 19.6518 33.5461 19.6447 33.5461C19.5888 33.5461 19.5391 33.5063 19.529 33.449C19.5179 33.3849 19.5609 33.324 19.6249 33.3129C20.1197 33.2272 20.6051 33.0867 21.0679 32.8963C21.1275 32.8708 21.1967 32.8995 21.2216 32.9609C21.2464 33.0203 21.2175 33.0889 21.1578 33.1138ZM22.208 20.6915C22.1532 20.6564 22.1381 20.5833 22.1736 20.5283C22.2088 20.474 22.2813 20.4583 22.3368 20.4944C22.7703 20.7771 23.1746 21.1077 23.5389 21.4778C23.5847 21.5244 23.5841 21.5991 23.5375 21.6446C23.5146 21.6678 23.485 21.6785 23.4551 21.6785C23.4246 21.6785 23.3943 21.6668 23.3711 21.6436C23.0185 21.2858 22.6272 20.9653 22.208 20.6915ZM23.6919 31.3495C23.34 31.7306 22.946 32.0734 22.521 32.3697C22.5006 32.384 22.4769 32.3907 22.4537 32.3907C22.4162 32.3907 22.3798 32.3733 22.3568 32.3404C22.3196 32.2869 22.3326 32.2134 22.3861 32.1766C22.7974 31.8901 23.1784 31.5579 23.5191 31.1898C23.5631 31.1416 23.6376 31.1387 23.6853 31.1829C23.7329 31.2272 23.7359 31.3015 23.6919 31.3495ZM24.3395 22.6595C24.3942 22.6243 24.4671 22.6417 24.5016 22.6972C24.7775 23.1362 25.0052 23.6075 25.1791 24.095C25.2007 24.1573 25.169 24.2244 25.1076 24.2458C25.0943 24.2502 25.0814 24.2525 25.068 24.2525C25.0198 24.2525 24.9744 24.2226 24.9572 24.1745C24.789 23.702 24.5687 23.2471 24.3021 22.8216C24.2674 22.7669 24.2842 22.6942 24.3395 22.6595ZM25.2504 28.6827C25.0917 29.1756 24.8784 29.654 24.6163 30.1018C24.5947 30.1388 24.5554 30.1598 24.5148 30.1598C24.4948 30.1598 24.4742 30.1549 24.4556 30.1436C24.3993 30.1109 24.3803 30.0384 24.4134 29.9817C24.6666 29.549 24.8728 29.0882 25.0258 28.6102C25.046 28.5478 25.1125 28.5129 25.1741 28.5343C25.236 28.5545 25.2702 28.6203 25.2504 28.6827ZM25.5605 27.1598C25.5549 27.221 25.5036 27.2666 25.4432 27.2666C25.4398 27.2666 25.4362 27.2666 25.4323 27.2662C25.3673 27.2603 25.3198 27.2032 25.3259 27.1378C25.3453 26.9251 25.3552 26.7089 25.3552 26.494C25.3552 26.2075 25.3376 25.9189 25.3031 25.6365C25.295 25.571 25.3406 25.5127 25.4055 25.5046C25.4701 25.4947 25.5286 25.5424 25.5369 25.607C25.5727 25.8998 25.5912 26.1984 25.5912 26.4942C25.591 26.7157 25.5809 26.9405 25.5605 27.1598Z" fill="white"/>
<path d="M9 29.2556V38.17H13.5484V34.9164C11.3817 33.7008 9.72976 31.6787 9 29.2556ZM11.4302 37.9893C11.4302 38.0541 11.3777 38.1074 11.3125 38.1074C11.2472 38.1074 11.1945 38.0541 11.1945 37.9893V37.2238C11.1945 37.159 11.2472 37.1063 11.3125 37.1063C11.3777 37.1063 11.4302 37.159 11.4302 37.2238V37.9893ZM11.4302 35.7639C11.4302 35.8285 11.3777 35.8816 11.3125 35.8816C11.2472 35.8816 11.1945 35.8285 11.1945 35.7639V34.3034C11.1945 34.2389 11.2472 34.1862 11.3125 34.1862C11.3777 34.1862 11.4302 34.2389 11.4302 34.3034V35.7639Z" fill="white"/>
<path d="M37.079 39.0459H4.3231C2.71215 39.0459 1.40186 37.745 1.40186 36.1458V3.34786C1.40186 1.74865 2.71215 0.447754 4.3231 0.447754H37.079C38.6897 0.447754 40 1.74865 40 3.34786V36.1458C40 37.745 38.6895 39.0459 37.079 39.0459ZM4.80837 1.6326C3.58574 1.6326 2.59114 2.62008 2.59114 3.83373V35.6599C2.59114 36.8736 3.58574 37.8611 4.80837 37.8611H36.5935C37.8159 37.8611 38.8105 36.8736 38.8105 35.6599L38.8107 3.83373C38.8107 2.62008 37.8161 1.6326 36.5937 1.6326H4.80837Z" fill="white"/>
<path d="M46.5312 11.6234C47.6657 11.3908 49.7308 11.2163 51.7377 11.2163C54.3845 11.2163 56.0133 11.5362 57.3512 12.4668C58.5729 13.1942 59.3872 14.4738 59.3872 16.1316C59.3872 17.935 58.2528 19.593 56.1296 20.3781V20.4362C58.1947 20.9598 60.0853 22.5886 60.0853 25.2938C60.0853 27.039 59.3291 28.4058 58.1947 29.3365C56.7986 30.5582 54.5009 31.1688 50.9231 31.1688C48.9453 31.1688 47.4328 31.0234 46.5312 30.9071V11.6234ZM50.0797 19.3606H51.9122C54.3845 19.3606 55.7807 18.1971 55.7807 16.5391C55.7807 14.7068 54.3845 13.8632 52.1159 13.8632C51.0687 13.8632 50.4581 13.9213 50.0799 14.0087V19.3606H50.0797ZM50.0797 28.377C50.5451 28.4353 51.156 28.4644 51.9703 28.4644C54.268 28.4644 56.304 27.5919 56.304 25.1779C56.304 22.909 54.3262 21.9781 51.8538 21.9781H50.0795V28.377H50.0797Z" fill="white"/>
<path d="M75.5576 23.7525C75.5576 28.9588 71.8929 31.2858 68.2861 31.2858C64.2722 31.2858 61.1892 28.5226 61.1892 23.9854C61.1892 19.3316 64.2433 16.4812 68.5189 16.4812C72.7361 16.481 75.5576 19.4479 75.5576 23.7525ZM64.883 23.8981C64.883 26.632 66.221 28.6973 68.4024 28.6973C70.4384 28.6973 71.8636 26.6906 71.8636 23.8398C71.8636 21.6293 70.8748 19.0988 68.4315 19.0988C65.9009 19.0988 64.883 21.5421 64.883 23.8981Z" fill="white"/>
<path d="M90.7688 23.7525C90.7688 28.9588 87.1041 31.2858 83.4973 31.2858C79.4834 31.2858 76.4004 28.5226 76.4004 23.9854C76.4004 19.3316 79.4545 16.4812 83.7301 16.4812C87.9475 16.481 90.7688 19.4479 90.7688 23.7525ZM80.0942 23.8981C80.0942 26.632 81.4322 28.6973 83.6136 28.6973C85.6496 28.6973 87.0748 26.6906 87.0748 23.8398C87.0748 21.6293 86.086 19.0988 83.6427 19.0988C81.1123 19.0988 80.0942 21.5421 80.0942 23.8981Z" fill="white"/>
<path d="M96.0906 23.0251H96.1488C96.4979 22.4726 96.905 21.8616 97.283 21.3673L100.715 16.801H105.02L99.7844 22.589L105.776 30.9656H101.384L97.3121 24.7122L96.0904 26.1374V30.9656H92.5127V10.3147H96.0904V23.0251H96.0906Z" fill="white"/>
<path d="M110.312 12.8453C110.312 13.9213 109.527 14.7648 108.276 14.7648C107.084 14.7648 106.298 13.9213 106.298 12.8453C106.298 11.7397 107.112 10.8965 108.305 10.8965C109.527 10.8965 110.283 11.7399 110.312 12.8453ZM106.502 30.9659V16.801H110.108V30.9657H106.502V30.9659Z" fill="white"/>
<path d="M112.755 21.0184C112.755 19.3897 112.726 18.0225 112.639 16.801H115.78L115.955 18.9243H116.042C116.653 17.8189 118.194 16.481 120.55 16.481C123.023 16.481 125.582 18.0808 125.582 22.5597V30.9657H122.004V22.9672C122.004 20.931 121.248 19.3895 119.299 19.3895C117.874 19.3895 116.885 20.4076 116.507 21.4837C116.391 21.8037 116.362 22.2399 116.362 22.6472V30.9657H112.755V21.0184Z" fill="white"/>
<path d="M141.142 16.801C141.084 17.7607 141.026 18.9242 141.026 20.873V28.9008C141.026 31.8673 140.415 33.9907 138.932 35.3287C137.448 36.6373 135.412 37.0448 133.463 37.0448C131.66 37.0448 129.74 36.6666 128.519 35.9104L129.304 33.2054C130.206 33.7288 131.718 34.2815 133.434 34.2815C135.761 34.2815 137.507 33.0598 137.507 30.0057V28.7843H137.448C136.634 30.0348 135.18 30.8784 133.318 30.8784C129.799 30.8784 127.297 27.9699 127.297 23.9558C127.297 19.302 130.322 16.4807 133.725 16.4807C135.878 16.4807 137.158 17.5279 137.827 18.6912H137.885L138.03 16.8008H141.142V16.801ZM137.448 22.4727C137.448 22.1528 137.419 21.8037 137.332 21.5127C136.954 20.204 135.936 19.215 134.423 19.215C132.416 19.215 130.933 20.9602 130.933 23.8395C130.933 26.2537 132.155 28.2025 134.394 28.2025C135.732 28.2025 136.896 27.3298 137.303 26.05C137.39 25.672 137.448 25.1777 137.448 24.7702V22.4727H137.448Z" fill="white"/>
<path d="M157.866 30.384C157.022 30.8202 155.161 31.2565 152.805 31.2565C146.58 31.2565 142.799 27.359 142.799 21.3963C142.799 14.9393 147.278 11.0417 153.27 11.0417C155.626 11.0417 157.313 11.5363 158.04 11.9145L157.255 14.7647C156.324 14.3576 155.044 14.0086 153.415 14.0086C149.431 14.0086 146.551 16.5099 146.551 21.222C146.551 25.5267 149.081 28.2898 153.386 28.2898C154.84 28.2898 156.353 27.9991 157.284 27.5625L157.866 30.384Z" fill="white"/>
<path d="M167.289 30.9657L167.056 29.3952H166.969C166.097 30.5005 164.613 31.2856 162.781 31.2856C159.93 31.2856 158.331 29.2205 158.331 27.0682C158.331 23.4904 161.501 21.6875 166.736 21.7163V21.4837C166.736 20.553 166.358 19.0115 163.857 19.0115C162.461 19.0115 161.006 19.4477 160.047 20.0587L159.349 17.7319C160.396 17.0918 162.228 16.4812 164.468 16.4812C169.005 16.4812 170.314 19.3609 170.314 22.4437V27.5629C170.314 28.8427 170.372 30.0934 170.518 30.9661H167.289V30.9657ZM166.824 24.0431C164.293 23.985 161.879 24.5374 161.879 26.69C161.879 28.0861 162.781 28.7258 163.915 28.7258C165.34 28.7258 166.387 27.7951 166.707 26.7772C166.795 26.5153 166.824 26.2247 166.824 25.9919V24.0431Z" fill="white"/>
<path d="M172.902 21.3674C172.902 19.4477 172.873 18.0809 172.785 16.8011H175.898L176.014 19.5061H176.13C176.828 17.4993 178.486 16.4812 179.999 16.4812C180.348 16.4812 180.551 16.5103 180.842 16.5686V19.9426C180.551 19.8843 180.231 19.8263 179.795 19.8263C178.079 19.8263 176.916 20.9314 176.596 22.5313C176.537 22.8514 176.479 23.2294 176.479 23.6366V30.9663H172.902V21.3674H172.902Z" fill="white"/>
</svg>
