<?xml version="1.0" encoding="utf-8"?>
<!-- Uploaded to: SVG Repo, www.svgrepo.com, Generator: SVG Repo Mixer Tools -->
<svg width="800px" height="800px" viewBox="0 0 1024 1024" class="icon"  version="1.1" xmlns="http://www.w3.org/2000/svg"><path d="M945 648V502.7l-91.4-18.3c-7.7-35.9-20.7-70.8-38.1-103.3l64.6-54.7-98.3-121.2-64.6 54.7c-28-23.4-58.9-42.9-92-57.1v-94.4L486.1 82.2v93.9c-33 1.6-64 9-92 21.4L329.5 119l-98.3 81.3 64.6 78.5c-17.4 25.1-30.5 54.1-38.1 86.2l-91.4-18.3v141.1l91.4 18.8c7.7 35.2 20.7 69.5 38.1 101.7l-64.6 52.2 98.3 121.2 64.6-52.2c28 23.8 58.9 43.8 92 58.8v93.9l139.1 30.3v-94.4c33-0.9 64-7.7 92-19.8l64.6 80.9 98.3-81.3-64.6-80.9c17.4-25.5 30.5-55 38.1-87.8L945 648z m-389.4-30.2c-65.1-13.5-117.9-78.6-117.9-145.4s52.8-110.5 117.9-97.5 117.9 78 117.9 145.4c0.1 67.3-52.7 111-117.9 97.5z" fill="#1B9BDB" /><path d="M250.6 790.5l-8.8 20.8 87.8-29.6-17.8-35.3zM78.8 375.8L183.7 409l-17-62.5zM533.4 884l3.3 57.3 89.1-29.3zM264.1 185.4l65.7-66.1-88.2 29z" fill="#1B9BDB" /><path d="M857.2 677.3V532l-91.4-18.3c-7.7-35.9-20.7-70.8-38.1-103.3l64.6-54.7L694 234.4l-64.6 54.7c-28-23.4-58.9-42.9-92-57.1v-94.4l-139.1-26.1v93.9c-33 1.6-64 9-92 21.4l-64.6-78.5-98.3 81.3 64.6 78.5c-17.4 25.1-30.5 54.1-38.1 86.2L78.5 376v141.1l91.4 18.8c7.7 35.2 20.7 69.5 38.1 101.7l-64.6 52.2L241.7 811l64.6-52.2c28 23.8 58.9 43.8 92 58.8v93.9l139.1 30.3v-94.4c33-0.9 64-7.7 92-19.8l64.6 80.9 98.3-81.3-64.6-80.9c17.4-25.5 30.5-55 38.1-87.8l91.4 18.8z m-389.4-30.2c-65.1-13.5-117.9-78.6-117.9-145.4s52.8-110.5 117.9-97.5 117.9 78 117.9 145.4c0.1 67.3-52.7 111-117.9 97.5z" fill="#3ED6FF" /><path d="M398.1 111.2l138.9 27 87.8-29.6-138.2-26zM694.1 908.4l88.1-29.6 97.9-80.6-87.8 29.2zM856.7 677.8l88.8-29.9-1-144.8-86.8 29zM880.5 327.2l-98.6-121.3-87.8 28.9 97.6 121.3z" fill="#2481BA" /></svg>