<?xml version="1.0" encoding="iso-8859-1"?>
<!-- Uploaded to: SVG Repo, www.svgrepo.com, Generator: SVG Repo Mixer Tools -->
<svg height="800px" width="800px" version="1.1" id="Layer_1" xmlns="http://www.w3.org/2000/svg" xmlns:xlink="http://www.w3.org/1999/xlink" 
	 viewBox="0 0 392.533 392.533" xml:space="preserve">
<path style="fill:#FFFFFF;" d="M310.917,264.792L310.917,264.792c-18.941-5.172-38.788-9.115-59.022-11.636l-45.899,93.673
	c-4.008,8.145-15.58,8.145-19.523,0l-45.899-93.673c-20.234,2.521-40.21,6.077-59.022,11.636
	c-30.19,8.857-31.612,37.689-31.612,37.689v68.331h292.719v-65.099C342.529,286.707,329.535,269.899,310.917,264.792z"/>
<path style="fill:#194F82;" d="M316.735,243.717c-22.432-6.206-45.964-10.602-70.012-13.188c-4.59-0.453-8.986,1.939-10.99,6.012
	l-39.564,80.549l-39.499-80.614c-2.004-4.073-6.4-6.594-10.99-6.012l0,0c-24.048,2.651-47.58,7.111-70.012,13.188
	c-27.992,7.693-47.58,33.228-47.58,61.931v76.024c0,6.012,4.848,10.925,10.925,10.925h314.505c6.012,0,10.925-4.848,10.925-10.925
	v-76.024C364.315,276.881,344.792,251.41,316.735,243.717z M342.529,370.747H49.81v-68.331c0,0,1.293-28.768,31.612-37.689
	c18.877-5.56,38.788-9.115,59.022-11.636l45.899,93.673c4.008,8.145,15.58,8.145,19.523,0l45.899-93.673
	c20.234,2.521,40.081,6.465,59.022,11.636l0,0c18.618,5.107,31.612,21.851,31.612,40.857v65.164H342.529z"/>
<g>
	<path style="fill:#56ACE0;" d="M305.099,285.802c-13.123-3.62-26.828-6.594-40.727-8.857l-35.297,71.952h91.475v-43.249
		C320.743,296.469,314.343,288.323,305.099,285.802z"/>
	<path style="fill:#56ACE0;" d="M117.818,291.556c6.012,0,10.925,4.848,10.925,10.925s-4.848,10.925-10.925,10.925H71.596v15.838
		h21.01c6.012,0,10.925,4.849,10.925,10.925c0,3.62-1.875,6.853-4.59,8.857H163.2l-35.297-71.952
		c-13.899,2.327-27.539,5.236-40.727,8.857c-3.814,1.034-7.046,3.103-9.632,5.689h40.339v-0.065H117.818z"/>
</g>
<path style="fill:#FFC10D;" d="M282.02,107.636c0-47.386-38.529-85.851-85.85-85.851s-85.851,38.465-85.851,85.851
	s38.529,85.786,85.851,85.786S282.02,154.958,282.02,107.636z"/>
<g>
	<path style="fill:#194F82;" d="M196.17,0C136.824,0,88.533,48.291,88.533,107.636s48.291,107.636,107.636,107.636
		s107.636-48.291,107.636-107.636S255.515,0,196.17,0z M196.17,193.422c-47.321,0-85.851-38.465-85.851-85.786
		c0-47.386,38.529-85.851,85.851-85.851s85.85,38.465,85.85,85.851S243.491,193.422,196.17,193.422z"/>
	<path style="fill:#194F82;" d="M196.17,71.693c6.853,0,12.541,5.624,12.541,12.541c0,6.012,4.848,10.925,10.925,10.925
		c6.077,0,10.925-4.848,10.925-10.925c0-15.063-9.826-27.927-23.402-32.517v-4.461c0-6.012-4.848-10.925-10.925-10.925
		c-6.012,0-10.925,4.848-10.925,10.925v4.655c-13.576,4.59-23.402,17.39-23.402,32.517c0,18.941,15.386,34.327,34.327,34.327
		c6.853,0,12.541,5.56,12.541,12.541c0,6.788-5.624,12.347-12.541,12.347c-6.853,0-12.541-5.56-12.541-12.541
		c0-6.012-4.848-10.925-10.925-10.925c-6.012,0-10.925,4.848-10.925,10.925c0,15.063,9.826,27.927,23.402,32.453v4.59
		c0,6.012,4.848,10.925,10.925,10.925c6.012,0,10.925-4.848,10.925-10.925v-4.59c13.576-4.59,23.402-17.39,23.402-32.453
		c0-18.941-15.386-34.327-34.327-34.327c-6.853,0-12.541-5.56-12.541-12.541S189.317,71.693,196.17,71.693z"/>
</g>
</svg>