<?xml version="1.0" encoding="iso-8859-1"?>
<!-- Uploaded to: SVG Repo, www.svgrepo.com, Generator: SVG Repo Mixer Tools -->
<svg version="1.1" id="Layer_1" xmlns="http://www.w3.org/2000/svg" xmlns:xlink="http://www.w3.org/1999/xlink" 
	 viewBox="0 0 512.001 512.001" xml:space="preserve">
<path style="fill:#1A6FAF;" d="M435.705,315.202c-48.001-48.001-111.82-74.436-179.704-74.436s-131.703,26.435-179.703,74.436
	S1.86,427.023,1.86,494.905C1.86,504.346,9.514,512,18.955,512h474.091c9.441,0,17.095-7.654,17.095-17.095
	C510.141,427.023,483.706,363.203,435.705,315.202z"/>
<path style="fill:#17649D;" d="M435.705,315.202c-48.001-48.001-111.82-74.436-179.704-74.436c-0.19,0-0.379,0.007-0.57,0.007
	v271.228h237.615c9.441,0,17.095-7.654,17.095-17.095C510.141,427.023,483.706,363.203,435.705,315.202z"/>
<path style="fill:#C3A534;" d="M298.033,434.295c0.44,5.33-1.012,10.645-4.102,15.011l-29.61,41.841
	c-1.91,2.7-5.012,4.304-8.319,4.304c-3.307,0-6.408-1.605-8.319-4.304l-29.61-41.841c-3.09-4.366-4.543-9.681-4.102-15.011
	l14.175-171.633h55.713L298.033,434.295z"/>
<path style="fill:#F6CE23;" d="M255.431,262.661h-27.286l-14.175,171.633c-0.44,5.33,1.012,10.645,4.102,15.011l29.61,41.841
	c1.799,2.543,4.66,4.096,7.75,4.27V262.661z"/>
<path style="fill:#E5BF2B;" d="M197.333,247.551l47.297,47.297c6.279,6.279,16.461,6.279,22.74,0l47.297-47.297
	c-19.004-4.47-38.657-6.785-58.668-6.785C235.99,240.765,216.338,243.081,197.333,247.551z"/>
<path style="fill:#F7DC4D;" d="M255.431,240.774c-19.814,0.043-39.274,2.35-58.098,6.776l47.297,47.297
	c2.995,2.995,6.878,4.544,10.8,4.683V240.774z"/>
<path style="fill:#FFD322;" d="M335.692,98.372L258.105,2.179C256.994,0.801,255.319,0,253.548,0c-1.77,0-3.446,0.801-4.557,2.179
	L171.403,98.37l-37.277-50.78c-1.497-2.04-4.137-2.888-6.543-2.099c-2.406,0.789-4.032,3.033-4.032,5.564v152.505
	c0,7.205,5.841,13.045,13.045,13.045h238.806c7.205,0,13.045-5.841,13.045-13.045V45.794c0-2.519-1.61-4.755-3.999-5.553
	s-5.02,0.019-6.535,2.032L335.692,98.372z"/>
<path style="fill:#EDBE00;" d="M384.451,40.242c-2.389-0.799-5.02,0.019-6.535,2.032l-42.224,56.098L258.105,2.179
	C256.994,0.801,255.319,0,253.548,0c-0.025,0-0.05,0.003-0.075,0.005v216.601h121.931c7.205,0,13.045-5.841,13.045-13.045V45.794
	C388.45,43.276,386.839,41.04,384.451,40.242z"/>
<rect x="123.549" y="138.569" style="fill:#ECEDEF;" width="264.898" height="32.503"/>
<rect x="253.468" y="138.569" style="fill:#D7D8DC;" width="134.979" height="32.503"/>
</svg>