<?xml version="1.0" encoding="iso-8859-1"?>
<!-- Uploaded to: SVG Repo, www.svgrepo.com, Generator: SVG Repo Mixer Tools -->
<svg height="800px" width="800px" version="1.1" id="Layer_1" xmlns="http://www.w3.org/2000/svg" xmlns:xlink="http://www.w3.org/1999/xlink" 
	 viewBox="0 0 512 512" xml:space="preserve">
<circle style="fill:#ECF0F1;" cx="256" cy="256" r="256"/>
<circle style="fill:#0F7986;" cx="256" cy="256" r="256"/>
<ellipse style="fill:#076673;" cx="256" cy="421.646" rx="182.284" ry="14.369"/>
<path style="fill:#666666;" d="M65.979,67.222h380.037c12.485,0,22.702,10.217,22.702,22.702V324.03H43.282V89.922
	c0-12.485,10.217-22.702,22.702-22.702L65.979,67.222L65.979,67.222z"/>
<path style="fill:#21D0C3;" d="M58.695,308.617h394.609V89.927c0-3.977-3.308-7.289-7.284-7.289H65.984
	c-3.977,0-7.284,3.307-7.284,7.289v218.69H58.695z"/>
<g>
	<path style="fill:#FFFFFF;" d="M468.718,324.03v24.826c0,12.49-11.261,22.702-25.024,22.702H68.307
		c-13.764,0-25.024-10.212-25.024-22.702V324.03H468.718z"/>
	<path style="fill:#FFFFFF;" d="M141.237,115.529h229.525h34.165c4.143,0,7.528,3.39,7.528,7.528v44.793v140.767H99.544V167.851
		v-44.793c0-4.143,3.385-7.528,7.528-7.528L141.237,115.529L141.237,115.529z"/>
</g>
<path style="fill:#828282;" d="M107.072,115.529h297.855c4.143,0,7.528,3.385,7.528,7.528v15.053H99.544v-15.053
	C99.544,118.915,102.929,115.529,107.072,115.529z"/>
<path style="fill:#FFFFFF;" d="M226.385,123.326h163.62c1.113,0,2.023,0.914,2.023,2.023v3.751c0,1.109-0.91,2.023-2.023,2.023
	h-163.62c-1.109,0-2.018-0.91-2.018-2.023v-3.751C224.366,124.235,225.276,123.326,226.385,123.326z"/>
<path style="fill:#21D0C3;" d="M117.335,121.982c2.392,0,4.333,1.94,4.333,4.333s-1.94,4.333-4.333,4.333
	c-2.397,0-4.337-1.94-4.337-4.333C112.998,123.917,114.939,121.982,117.335,121.982z"/>
<path style="fill:#FAD24D;" d="M134.438,121.982c2.397,0,4.333,1.94,4.333,4.333s-1.94,4.333-4.333,4.333s-4.333-1.94-4.333-4.333
	C130.106,123.917,132.046,121.982,134.438,121.982z"/>
<path style="fill:#FF5B62;" d="M151.551,121.982c2.392,0,4.333,1.94,4.333,4.333s-1.94,4.333-4.333,4.333
	c-2.397,0-4.338-1.94-4.338-4.333C147.214,123.917,149.154,121.982,151.551,121.982z"/>
<path style="fill:#FAD24D;" d="M258.707,200.261c11.052,1.87,16.074,12.411,15.949,22.47l107.331-0.933
	c2.928-0.028,5.363,1.469,5.363,3.266l0,0c0,1.793-2.429,2.993-5.363,3.266l-111.193,10.425c-3.556,5.085-8.868,8.314-14.794,8.314
	c-5.93,0-11.237-3.224-14.794-8.309l-111.197-10.425c-2.905-0.272-5.358-1.473-5.358-3.266l0,0c0-1.796,2.415-3.289,5.358-3.266
	l107.331,0.933c-0.383-9.889,4.9-20.6,15.949-22.47l0.106-4.064h-32.789c-1.16,0-2.102-1.035-2.102-2.3l0,0
	c0-1.266,0.942-2.301,2.102-2.301h32.914l0.494-18.969c0.051-1.824,0.485-3.317,1.986-3.317l0,0c1.496,0,1.935,1.496,1.986,3.317
	l0.499,18.969h32.914c1.155,0,2.097,1.035,2.097,2.301l0,0c0,1.266-0.942,2.3-2.097,2.3H258.61l0.102,4.064L258.707,200.261z
	 M199.628,236.952c4.508,0,8.166,4.004,8.166,8.938c0,4.937-3.658,8.938-8.166,8.938s-8.166-4-8.166-8.938
	C191.462,240.956,195.12,236.952,199.628,236.952z M312.372,236.952c4.508,0,8.166,4.004,8.166,8.938
	c0,4.937-3.658,8.938-8.166,8.938c-4.508,0-8.171-4-8.171-8.938C304.202,240.956,307.864,236.952,312.372,236.952z M312.372,241.963
	c1.981,0,3.589,1.76,3.589,3.926c0,2.171-1.603,3.93-3.589,3.93c-1.981,0-3.589-1.76-3.589-3.93
	C308.783,243.723,310.391,241.963,312.372,241.963z M199.628,241.963c1.981,0,3.589,1.76,3.589,3.926c0,2.171-1.603,3.93-3.589,3.93
	c-1.981,0-3.589-1.76-3.589-3.93C196.039,243.723,197.646,241.963,199.628,241.963z"/>
<circle style="fill:#B6B6B8;" cx="256" cy="346.803" r="7.815"/>
<path style="fill:#C2C2C4;" d="M305.065,407.27l36.096,11.565H170.839l29.121-11.565v-35.712h105.105V407.27z"/>
<path style="fill:#B0B0B0;" d="M305.065,407.27L199.96,371.557h105.105V407.27z"/>
<path style="fill:#ECF0F1;" d="M199.96,407.27h105.105l36.096,11.565v4.983H256h-85.166v-4.983l29.121-11.565H199.96z"/>
</svg>