<?xml version="1.0" encoding="iso-8859-1"?>
<!-- Uploaded to: SVG Repo, www.svgrepo.com, Generator: SVG Repo Mixer Tools -->
<svg version="1.1" id="Layer_1" xmlns="http://www.w3.org/2000/svg" xmlns:xlink="http://www.w3.org/1999/xlink" 
	 viewBox="0 0 512 512" xml:space="preserve">
<path d="M355,512H157c-35.2,0-64-28.8-64-64V64c0-35.2,28.8-64,64-64h198c35.2,0,64,28.8,64,64v384C419,483.2,390.2,512,355,512z"/>
<rect x="118" y="60.416" style="fill:#13B7E6;" width="280" height="376.96"/>
<g>
	<circle style="fill:#CCCCCC;" cx="256" cy="30.176" r="12"/>
	<path style="fill:#CCCCCC;" d="M283.128,488.272h-54.264c-7.496,0-13.568-6.064-13.568-13.568c0-7.496,6.064-13.568,13.568-13.568
		h54.264c7.496,0,13.568,6.064,13.568,13.568C296.696,482.208,290.632,488.272,283.128,488.272z"/>
</g>
<g>
	<rect x="151.216" y="350.296" style="fill:#FFFFFF;" width="209.6" height="8"/>
	<rect x="174.472" y="377.2" style="fill:#FFFFFF;" width="163.064" height="8"/>
	<path style="fill:#FFFFFF;" d="M153.016,259.728c4.808,0.896,11.872,1.096,18.48-0.896c7.12-2.144,9.992-6.224,8.656-10.704
		c-1.296-4.272-5.288-5.736-14.416-6.2c-12.584-0.536-21.904-4.592-24.904-14.56c-3.52-11.704,3.536-23.584,19.712-28.464
		c7.728-2.32,13.92-2.416,18.536-1.808l0.312,13.536c-3.144-0.488-8.608-0.952-15.32,1.072s-9.056,6.048-7.976,9.616
		c1.312,4.36,5.776,5.144,15.632,5.832c13.44,0.824,21.032,5.408,23.952,15.072c3.456,11.504-2.456,23.92-21.264,29.584
		c-7.832,2.36-16.168,2.664-20.68,1.688L153.016,259.728z"/>
	<path style="fill:#FFFFFF;" d="M189.592,187.368l15.464-4.664l8.544,28.384l0.2-0.056c0.976-2.632,2.52-4.856,4.568-6.92
		c1.872-1.896,4.592-3.488,7.456-4.344c9.872-2.976,19.44,1.568,23.944,16.512l8.76,29.096l-15.456,4.656l-8.24-27.36
		c-1.968-6.512-5.56-10.32-11.344-8.568c-4.072,1.224-5.824,4.632-6.104,7.728c-0.096,1.144,0.2,2.488,0.536,3.608l8.88,29.488
		l-15.464,4.664L189.592,187.368z"/>
	<path style="fill:#FFFFFF;" d="M312.456,201.408c5.48,18.2-4.928,30.432-18.248,34.44c-14.544,4.384-28.608-1.824-33.44-17.88
		c-4.848-16.072,2.64-29.52,18.592-34.336C294.616,179.032,307.944,186.44,312.456,201.408z M276.592,212.752
		c2.568,8.544,8.072,13.88,14.68,11.88c5.992-1.8,8.056-8.976,5.36-17.92c-2.24-7.416-7.344-14.08-14.368-11.976
		C274.832,196.976,274.392,205.432,276.592,212.752z"/>
	<path style="fill:#FFFFFF;" d="M319.736,190.872c-1.952-6.512-3.848-12.032-5.432-16.56l13.432-4.032l2.784,6.712l0.216-0.072
		c2.072-6.392,6.928-10.848,14.152-13.024c10.88-3.272,23.488,3.24,28.272,19.104c5.456,18.104-3.464,30.096-14.544,33.44
		c-6.008,1.808-11.416,0.776-14.64-1.8l-0.192,0.056l7.44,24.712l-15.464,4.656L319.736,190.872z M338.728,197.92
		c0.368,1.216,0.808,2.312,1.272,3.152c2.288,3.872,6.784,5.944,11.264,4.592c6.712-2.024,9-8.8,6.456-17.248
		c-2.384-7.928-7.752-12.856-14.664-10.776c-4.368,1.312-7.264,5.728-6.904,10.616c0.048,0.872,0.264,1.92,0.536,2.848
		L338.728,197.92z"/>
</g>
</svg>